<svg height="512pt" viewBox="-32 0 511 512" width="512pt" xmlns="http://www.w3.org/2000/svg"><path d="m118.296875 216.402344c0 8.285156-6.714844 15-15 15s-15-6.714844-15-15c0-8.28125 6.714844-15 15-15s15 6.71875 15 15zm0 0"/><path d="m319.699219 159.601562c0-88.003906-71.59375-159.601562-159.597657-159.601562-88.003906 0-159.601562 71.597656-159.601562 159.601562 0 88.003907 71.597656 159.597657 159.601562 159.597657 88.003907 0 159.597657-71.59375 159.597657-159.597657zm-159.597657 129.597657c-71.464843 0-129.601562-58.136719-129.601562-129.597657 0-71.464843 58.136719-129.601562 129.601562-129.601562 71.460938 0 129.597657 58.136719 129.597657 129.601562 0 71.460938-58.136719 129.597657-129.597657 129.597657zm0 0"/><path d="m264.535156 337.398438c-48.140625 0-87.300781 39.164062-87.300781 87.300781s39.160156 87.300781 87.300781 87.300781c48.136719 0 87.300782-39.164062 87.300782-87.300781s-39.164063-87.300781-87.300782-87.300781zm0 144.601562c-31.597656 0-57.300781-25.703125-57.300781-57.300781 0-31.59375 25.703125-57.300781 57.300781-57.300781 31.59375 0 57.300782 25.707031 57.300782 57.300781 0 31.597656-25.707032 57.300781-57.300782 57.300781zm0 0"/><path d="m393.066406 224.933594c-30.417968 0-55.167968 24.746094-55.167968 55.167968 0 30.417969 24.75 55.164063 55.167968 55.164063 30.417969 0 55.167969-24.746094 55.167969-55.164063 0-30.421874-24.75-55.167968-55.167969-55.167968zm0 80.332031c-13.875 0-25.167968-11.289063-25.167968-25.164063 0-13.878906 11.292968-25.167968 25.167968-25.167968 13.878906 0 25.167969 11.289062 25.167969 25.167968 0 13.875-11.289063 25.164063-25.167969 25.164063zm0 0"/><path d="m94.78125 159.601562c0-17.460937 6.792969-33.867187 19.121094-46.199218 5.859375-5.859375 5.859375-15.355469 0-21.214844-5.855469-5.855469-15.355469-5.855469-21.214844 0-17.996094 18-27.90625 41.941406-27.90625 67.414062 0 8.28125 6.71875 15 15 15 8.285156 0 15-6.71875 15-15zm0 0"/></svg>